<?xml version="1.0" standalone="no"?><!DOCTYPE svg PUBLIC "-//W3C//DTD SVG 1.1//EN" "http://www.w3.org/Graphics/SVG/1.1/DTD/svg11.dtd"><svg t="1610419386039" class="icon" viewBox="0 0 1024 1024" version="1.1" xmlns="http://www.w3.org/2000/svg" p-id="7300" xmlns:xlink="http://www.w3.org/1999/xlink" width="200" height="200"><defs><style type="text/css"></style></defs><path d="M418.56 928.256C189.184 928.256 2.304 741.632 2.304 512s186.88-416.256 416.256-416.256c229.632 0 416.256 186.624 416.256 416.256S648.192 928.256 418.56 928.256zM418.56 141.824C214.528 141.824 48.384 307.968 48.384 512s166.144 370.176 370.176 370.176S788.992 716.032 788.992 512 622.848 141.824 418.56 141.824z" p-id="7301" fill="#d81e06"></path><path d="M418.56 397.568c-50.432 0-91.648-40.96-91.648-91.648 0-50.432 40.96-91.648 91.648-91.648 50.432 0 91.648 40.96 91.648 91.648C510.208 356.352 469.248 397.568 418.56 397.568zM418.56 260.352c-25.088 0-45.568 20.48-45.568 45.568s20.48 45.568 45.568 45.568 45.568-20.48 45.568-45.568S443.648 260.352 418.56 260.352z" p-id="7302" fill="#d81e06"></path><path d="M418.56 808.96c-50.432 0-91.648-40.96-91.648-91.648s40.96-91.648 91.648-91.648c50.432 0 91.648 40.96 91.648 91.648S469.248 808.96 418.56 808.96zM418.56 672c-25.088 0-45.568 20.48-45.568 45.568s20.48 45.568 45.568 45.568 45.568-20.48 45.568-45.568S443.648 672 418.56 672z" p-id="7303" fill="#d81e06"></path><path d="M624.384 603.136c-50.432 0-91.648-40.96-91.648-91.648 0-50.432 40.96-91.648 91.648-91.648s91.648 40.96 91.648 91.648C716.032 562.176 674.816 603.136 624.384 603.136zM624.384 466.176c-25.088 0-45.568 20.48-45.568 45.568s20.48 45.568 45.568 45.568 45.568-20.48 45.568-45.568C669.952 486.656 649.472 466.176 624.384 466.176z" p-id="7304" fill="#d81e06"></path><path d="M212.992 603.136c-50.432 0-91.648-40.96-91.648-91.648 0-50.432 40.96-91.648 91.648-91.648 50.432 0 91.648 40.96 91.648 91.648C304.384 562.176 263.424 603.136 212.992 603.136zM212.992 466.176c-25.088 0-45.568 20.48-45.568 45.568s20.48 45.568 45.568 45.568 45.568-20.48 45.568-45.568C258.304 486.656 238.08 466.176 212.992 466.176z" p-id="7305" fill="#d81e06"></path><path d="M869.12 865.792c-9.984 0-19.712-1.024-29.184-3.328-19.712-4.608-34.304-13.312-47.36-20.992-15.104-8.704-28.16-16.384-47.872-18.176-26.624-2.304-54.784 6.912-83.712 27.392-10.496 7.424-24.832 4.864-32-5.632-7.424-10.496-4.864-24.832 5.632-32 38.144-26.88 76.544-38.912 114.176-35.84 30.208 2.56 49.92 14.08 67.328 24.064 11.776 6.912 22.016 12.8 35.072 15.872 36.864 8.96 77.568-9.472 132.352-54.784 9.728-8.192 24.32-6.656 32.512 3.072 8.192 9.728 6.656 24.32-3.072 32.512C957.952 843.264 913.92 865.792 869.12 865.792z" p-id="7306" fill="#d81e06"></path></svg>