<?xml version="1.0" standalone="no"?><!DOCTYPE svg PUBLIC "-//W3C//DTD SVG 1.1//EN" "http://www.w3.org/Graphics/SVG/1.1/DTD/svg11.dtd"><svg t="1610419234950" class="icon" viewBox="0 0 1428 1024" version="1.1" xmlns="http://www.w3.org/2000/svg" p-id="4223" xmlns:xlink="http://www.w3.org/1999/xlink" width="278.90625" height="200"><defs><style type="text/css"></style></defs><path d="M1173.84071533 859.36868875H275.47715157A109.012395 109.012395 0 0 1 166.45312501 750.34466218V168.15426531A109.02402656 109.02402656 0 0 1 275.47715157 59.13023875h898.36356376a109.04729063 109.04729063 0 0 1 109.02402656 109.02402656v582.19039687a109.03565813 109.03565813 0 0 1-109.02402656 109.02402657z m-898.36356375-713.02388157a21.85598531 21.85598531 0 0 0-15.42364875 6.38580938A21.80945812 21.80945812 0 0 0 253.69095751 168.15426531v582.19039687a21.85598531 21.85598531 0 0 0 6.38580938 15.42364875A21.85598531 21.85598531 0 0 0 275.50041564 772.15412031h898.34029968a21.79782656 21.79782656 0 0 0 21.79782657-21.80945813V168.15426531a21.79782656 21.79782656 0 0 0-21.79782657-21.79782563zM995.0380547 1012h-540.7582425a43.61891625 43.61891625 0 1 1 0-87.2378325h540.7582425a43.61891625 43.61891625 0 1 1 0 87.2378325z m0 0" p-id="4224" fill="#d81e06"></path><path d="M724.65893345 992.08651093a43.60728469 43.60728469 0 0 1-43.60728375-43.58402062v-122.13296531a43.61891625 43.61891625 0 0 1 87.23783156 0v122.13296531a43.59565219 43.59565219 0 0 1-43.60728469 43.60728375z m-8.72378344-588.72741843H446.6494097a43.61891625 43.61891625 0 0 1 0-87.23783157H715.93515001a43.61891625 43.61891625 0 1 1 0 87.23783157z m0 0" p-id="4225" fill="#d81e06"></path><path d="M484.8014222 662.03671281l-14.16742406-2.17513031A43.61891625 43.61891625 0 0 1 444.4510172 604.20384531l90.49471031-254.02493531a43.60728469 43.60728469 0 1 1 81.78256031 29.53291406l-90.49471124 252.93155531a43.60728469 43.60728469 0 0 1-41.43215438 29.43985969z m330.34059094 0l-15.27243657-3.26851125a43.61891625 43.61891625 0 0 1-28.34647968-40.33877344V364.40449281a43.61891625 43.61891625 0 1 1 87.2378325 0v139.58053125l148.26941906-169.02039188a43.64217938 43.64217938 0 1 1 65.41674281 57.78634032L847.85038408 647.86928875a43.58402062 43.58402062 0 0 1-32.69673938 14.16742406z m304.16924156 88.30794937h-58.85645719a43.61891625 43.61891625 0 0 1 0-87.2378325h58.86808875a43.61891625 43.61891625 0 0 1 0 87.2378325z m0 0" p-id="4226" fill="#d81e06"></path></svg>